<?xml version="1.0" encoding="iso-8859-1"?>
<!-- Generator: Adobe Illustrator 19.0.0, SVG Export Plug-In . SVG Version: 6.00 Build 0)  -->
<svg version="1.1" id="Capa_1" xmlns="http://www.w3.org/2000/svg" xmlns:xlink="http://www.w3.org/1999/xlink" x="0px" y="0px"
	 viewBox="0 0 512 512" style="enable-background:new 0 0 512 512;" xml:space="preserve">
<g>
	<g>
		<path d="M369,186c-5.52,0-10,4.48-10,10s4.48,10,10,10c5.52,0,10-4.48,10-10S374.52,186,369,186z"/>
	</g>
</g>
<g>
	<g>
		<path d="M146,186c-5.52,0-10,4.48-10,10s4.48,10,10,10s10-4.48,10-10S151.52,186,146,186z"/>
	</g>
</g>
<g>
	<g>
		<path d="M482,56H30C13.458,56,0,69.458,0,86v340c0,16.542,13.458,30,30,30h452c16.542,0,30-13.458,30-30V86
			C512,69.458,498.542,56,482,56z M492,426c0,5.514-4.486,10-10,10H30c-5.514,0-10-4.486-10-10v-90h472V426z M492,316H20V86
			c0-5.514,4.486-10,10-10h452c5.514,0,10,4.486,10,10V316z"/>
	</g>
</g>
<g>
	<g>
		<path d="M432.189,245.045C443.077,231.069,449,213.992,449,196s-5.923-35.069-16.811-49.046l14.593-14.593
			c3.905-3.905,3.905-10.237,0-14.143c-3.906-3.905-10.236-3.905-14.143,0l-14.593,14.593C404.069,121.923,386.991,116,369,116
			c-17.99,0-35.066,5.922-49.046,16.812l-14.593-14.593c-3.906-3.905-10.236-3.905-14.143,0c-3.905,3.905-3.905,10.237,0,14.143
			l14.593,14.593C294.923,160.931,289,178.008,289,196c0,17.99,5.922,35.066,16.812,49.046l-14.593,14.593
			c-3.906,3.905-3.906,10.237,0,14.142c3.906,3.905,10.236,3.905,14.143,0l14.593-14.593C333.931,270.077,351.009,276,369,276
			c17.99,0,35.066-5.922,49.046-16.812l14.593,14.593c3.906,3.905,10.236,3.905,14.143,0c3.905-3.905,3.905-10.237,0-14.143
			L432.189,245.045z M417.903,230.761l-13.552-13.552c-3.905-3.905-10.235-3.905-14.143,0c-3.905,3.905-3.905,10.237,0,14.142
			l13.552,13.552C393.671,252.103,381.636,256,369,256c-12.637,0-24.673-3.898-34.761-11.097l13.552-13.552
			c3.905-3.905,3.905-10.237,0-14.142c-3.906-3.905-10.236-3.905-14.143,0l-13.551,13.551C312.897,220.67,309,208.635,309,196
			c0-12.637,3.898-24.673,11.097-34.761l13.552,13.552c3.905,3.905,10.235,3.906,14.143,0c3.905-3.905,3.905-10.237,0-14.142
			l-13.552-13.552C344.329,139.897,356.364,136,369,136s24.671,3.897,34.76,11.098l-13.552,13.552
			c-3.905,3.905-3.905,10.237,0,14.142c3.906,3.905,10.236,3.905,14.143,0l13.551-13.551C425.103,171.329,429,183.364,429,196
			C429,208.637,425.102,220.673,417.903,230.761z"/>
	</g>
</g>
<g>
	<g>
		<path d="M209.188,245.045C220.077,231.069,226,213.991,226,196c0-17.991-5.923-35.069-16.812-49.046l14.593-14.593
			c3.905-3.905,3.905-10.237,0-14.143c-3.905-3.905-10.237-3.905-14.143,0l-14.593,14.593C181.069,121.923,163.991,116,146,116
			c-17.99,0-35.066,5.922-49.045,16.812l-14.593-14.593c-3.905-3.905-10.237-3.905-14.143,0c-3.905,3.905-3.905,10.237,0,14.143
			l14.593,14.593C71.923,160.931,66,178.009,66,196c0,17.99,5.922,35.066,16.812,49.045l-14.593,14.593
			c-3.905,3.906-3.905,10.238,0,14.143c3.905,3.905,10.237,3.905,14.143,0l14.593-14.593C110.931,270.077,128.009,276,146,276
			c17.99,0,35.066-5.922,49.045-16.812l14.593,14.593c3.905,3.905,10.237,3.905,14.143,0c3.905-3.905,3.905-10.237,0-14.143
			L209.188,245.045z M194.903,230.761l-13.552-13.552c-3.905-3.905-10.237-3.905-14.143,0c-3.905,3.905-3.905,10.237,0,14.143
			l13.552,13.552C170.671,252.103,158.636,256,146,256c-12.637,0-24.673-3.898-34.761-11.097l13.552-13.552
			c3.905-3.905,3.905-10.237,0-14.143c-3.905-3.905-10.237-3.905-14.143,0L97.097,230.76C89.897,220.671,86,208.636,86,196
			c0-12.637,3.898-24.673,11.097-34.761l13.552,13.552c3.905,3.905,10.237,3.905,14.143,0c3.905-3.905,3.905-10.237,0-14.143
			l-13.552-13.552C121.329,139.897,133.364,136,146,136s24.671,3.897,34.76,11.097l-13.552,13.552
			c-3.905,3.905-3.905,10.237,0,14.143c3.905,3.905,10.237,3.905,14.143,0l13.552-13.552C202.103,171.329,206,183.364,206,196
			C206,208.637,202.102,220.673,194.903,230.761z"/>
	</g>
</g>
<g>
	<g>
		<path d="M419,356c-16.542,0-30,13.458-30,30s13.458,30,30,30s30-13.458,30-30S435.542,356,419,356z M419,396
			c-5.514,0-10-4.486-10-10c0-5.514,4.486-10,10-10c5.514,0,10,4.486,10,10C429,391.514,424.514,396,419,396z"/>
	</g>
</g>
<g>
	<g>
		<path d="M256,356c-16.542,0-30,13.458-30,30s13.458,30,30,30s30-13.458,30-30S272.542,356,256,356z M256,396
			c-5.514,0-10-4.486-10-10c0-5.514,4.486-10,10-10c5.514,0,10,4.486,10,10C266,391.514,261.514,396,256,396z"/>
	</g>
</g>
<g>
	<g>
		<path d="M93,356c-16.542,0-30,13.458-30,30s13.458,30,30,30s30-13.458,30-30S109.542,356,93,356z M93,396c-5.514,0-10-4.486-10-10
			c0-5.514,4.486-10,10-10s10,4.486,10,10C103,391.514,98.514,396,93,396z"/>
	</g>
</g>
<g>
	<g>
		<path d="M196,376h-43c-5.523,0-10,4.477-10,10s4.477,10,10,10h43c5.523,0,10-4.477,10-10S201.523,376,196,376z"/>
	</g>
</g>
<g>
	<g>
		<path d="M359,376h-43c-5.522,0-10,4.477-10,10s4.478,10,10,10h43c5.522,0,10-4.477,10-10S364.522,376,359,376z"/>
	</g>
</g>
<g>
</g>
<g>
</g>
<g>
</g>
<g>
</g>
<g>
</g>
<g>
</g>
<g>
</g>
<g>
</g>
<g>
</g>
<g>
</g>
<g>
</g>
<g>
</g>
<g>
</g>
<g>
</g>
<g>
</g>
</svg>
