<?xml version="1.0" encoding="iso-8859-1"?>
<!-- Generator: Adobe Illustrator 19.0.0, SVG Export Plug-In . SVG Version: 6.00 Build 0)  -->
<svg version="1.1" id="Capa_1" xmlns="http://www.w3.org/2000/svg" xmlns:xlink="http://www.w3.org/1999/xlink" x="0px" y="0px"
	 viewBox="0 0 512.013 512.013" style="enable-background:new 0 0 512.013 512.013;" xml:space="preserve">
<g>
	<g>
		<path d="M509.653,270.662l-46.891-58.624c-26.453-33.045-65.92-52.032-108.288-52.032h-23.808c-2.005,0-3.968,0.555-5.653,1.643
			l-85.333,53.333c-4.992,3.115-6.507,9.707-3.392,14.677c3.115,5.035,9.749,6.528,14.677,3.392l82.752-51.712h20.757
			c35.861,0,69.248,16.043,91.627,44.011l39.317,49.152l-18.261,11.115c-34.581,17.323-73.344,25.387-111.872,23.36L27.435,288.988
			l14.123-28.224c2.624-5.269,0.491-11.669-4.779-14.315c-5.269-2.624-11.669-0.469-14.315,4.779L1.131,293.894
			c-1.6,3.221-1.472,6.997,0.299,10.112c1.792,3.093,5.013,5.099,8.597,5.312l344.021,20.949c4.288,0.235,8.533,0.341,12.779,0.341
			c38.059,0,75.883-8.896,110.613-26.325l29.419-17.835c2.624-1.6,4.437-4.267,4.971-7.275
			C512.363,276.166,511.573,273.052,509.653,270.662z"/>
	</g>
</g>
<g>
	<g>
		<path d="M222.72,324.998l-22.763-22.763c-4.16-4.16-10.923-4.16-15.083,0c-4.16,4.16-4.16,10.923,0,15.083l22.763,22.763
			c3.669,3.648,5.696,8.533,5.696,13.845c0,10.709-8.704,19.413-19.413,19.413H36.053c-8.107,0-14.72-6.613-14.72-14.805
			c0-6.059,3.627-11.413,9.259-13.675l76.608-30.656c5.483-2.176,8.107-8.384,5.931-13.845c-2.176-5.461-8.384-8.149-13.845-5.931
			l-76.608,30.656C8.896,330.588,0,343.708,0,358.62c0,19.861,16.192,36.053,36.053,36.053H193.92
			c22.485,0,40.747-18.261,40.747-40.853C234.667,342.94,230.421,332.678,222.72,324.998z"/>
	</g>
</g>
<g>
	<g>
		<path d="M224,202.673H32c-17.643,0-32,14.357-32,32c0,17.643,14.357,32,32,32h192c17.643,0,32-14.357,32-32
			C256,217.03,241.643,202.673,224,202.673z M224,245.34H32c-5.867,0-10.667-4.8-10.667-10.667c0-5.867,4.8-10.667,10.667-10.667
			h192c5.867,0,10.667,4.8,10.667,10.667C234.667,240.54,229.867,245.34,224,245.34z"/>
	</g>
</g>
<g>
	<g>
		<path d="M436.011,186.844c-39.104-70.528-102.72-69.376-105.621-69.504c-3.243,0.085-6.251,1.643-8.213,4.203
			c-1.963,2.581-2.624,5.931-1.856,9.045l10.667,42.667c1.408,5.717,7.211,9.109,12.928,7.765c5.717-1.429,9.173-7.211,7.765-12.928
			l-6.933-27.776c18.027,3.797,50.027,16.213,72.576,56.853c1.963,3.52,5.589,5.504,9.344,5.504c1.749,0,3.541-0.448,5.184-1.323
			C437.013,198.492,438.869,191.985,436.011,186.844z"/>
	</g>
</g>
<g>
	<g>
		<path d="M168.875,335.43l-21.333-32c-3.307-4.928-9.92-6.229-14.784-2.965c-4.907,3.264-6.229,9.899-2.965,14.784l10.261,15.424
			H96c-5.888,0-10.667,4.779-10.667,10.667c0,5.888,4.779,10.667,10.667,10.667h64c3.947,0,7.552-2.176,9.387-5.611
			C171.264,342.918,171.072,338.694,168.875,335.43z"/>
	</g>
</g>
<g>
	<g>
		<path d="M466.197,376.476l-64-64c-4.16-4.16-10.923-4.16-15.083,0c-4.16,4.16-4.16,10.923,0,15.083l64,64
			c2.091,2.069,4.821,3.115,7.552,3.115s5.461-1.045,7.531-3.115C470.357,387.398,470.357,380.636,466.197,376.476z"/>
	</g>
</g>
<g>
	<g>
		<path d="M318.208,175.43l-21.333-32c-1.984-2.965-5.312-4.757-8.875-4.757h-21.333c-5.888,0-10.667,4.779-10.667,10.667
			s4.779,10.667,10.667,10.667h15.616l18.176,27.243c2.069,3.093,5.44,4.757,8.875,4.757c2.048,0,4.096-0.576,5.909-1.792
			C320.149,186.95,321.472,180.316,318.208,175.43z"/>
	</g>
</g>
<g>
	<g>
		<path d="M506.112,353.137c-5.248-2.624-11.669-0.469-14.315,4.779l-4.779,9.557c-1.813,3.627-5.461,5.867-9.536,5.867h-82.816
			c-5.888,0-10.667,4.779-10.667,10.667s4.779,10.667,10.667,10.667h82.816c12.203,0,23.189-6.784,28.629-17.685l4.779-9.536
			C513.515,362.182,511.381,355.782,506.112,353.137z"/>
	</g>
</g>
<g>
</g>
<g>
</g>
<g>
</g>
<g>
</g>
<g>
</g>
<g>
</g>
<g>
</g>
<g>
</g>
<g>
</g>
<g>
</g>
<g>
</g>
<g>
</g>
<g>
</g>
<g>
</g>
<g>
</g>
</svg>
